# xmcd
#
# Track frame offsets:
#	150
#	13897
#	27349
#	45562
#	60164
#	80922
#	97332
#	113387
#	126019
#	148934
#	170097
#	188687
#	202955
#	226365
#	241873
#	261908
#	275273
#	288380
#	309720
#	323428
#
# Disc length: 4499 seconds
#
# Revision: 1
# Processed by: cddbd v1.5.2PL0 Copyright (c) Steve Scherf et al.
# Submitted via: audiograbber 1.83.01
#
DISCID=1a119114
DTITLE=John Denver - The Legendary John Denver [Disc 1] (Reader's Digest)
DYEAR=2011
DGENRE=Country
TTITLE0=Annie's Song
TTITLE1=Perhaps Love (with Plácido Domingo)
TTITLE2=Leaving On A Jet Plane
TTITLE3=Shanghai Breezes
TTITLE4=To The Wild Country
TTITLE5=Calypso
TTITLE6=I'm Sorry
TTITLE7=Baby You Look Good To Me Tonight
TTITLE8=Sweet Surrender (Live)
TTITLE9=Poems, Prayers And Promises (Live)
TTITLE10=Like A Sad Song
TTITLE11=Home Grown Tomatoes
TTITLE12=Sunshine On My Shoulders
TTITLE13=Friends With You
TTITLE14=What's On Your Mind
TTITLE15=Please, Daddy (Don't Get Drunk This Christmas)
TTITLE16=Follow Me
TTITLE17=Back Home Again
TTITLE18=Annie's Other Song (Live)
TTITLE19=This Old Guitar (Live)
EXTD=
EXTT0=
EXTT1=
EXTT2=
EXTT3=
EXTT4=
EXTT5=
EXTT6=
EXTT7=
EXTT8=
EXTT9=
EXTT10=
EXTT11=
EXTT12=
EXTT13=
EXTT14=
EXTT15=
EXTT16=
EXTT17=
EXTT18=
EXTT19=
PLAYORDER=
